<?xml version="1.0" standalone="no"?>
<!DOCTYPE svg PUBLIC "-//W3C//DTD SVG 20010904//EN"
 "http://www.w3.org/TR/2001/REC-SVG-20010904/DTD/svg10.dtd">
<svg version="1.0" xmlns="http://www.w3.org/2000/svg"
 width="16.000000pt" height="16.000000pt" viewBox="0 0 16.000000 16.000000"
 preserveAspectRatio="xMidYMid meet">
<metadata>
Created by potrace 1.11, written by Peter Selinger 2001-2013
</metadata>
<g transform="translate(0.000000,16.000000) scale(0.007407,-0.007407)"
fill="#000000" stroke="none">
<path d="M743 1827 c-183 -183 -333 -338 -333 -346 0 -7 41 -53 90 -102 50
-49 90 -93 90 -98 0 -5 -40 -49 -90 -98 -49 -49 -90 -96 -90 -104 0 -8 41 -54
90 -103 50 -49 90 -93 90 -97 0 -5 -43 -52 -96 -105 l-97 -96 342 -342 341
-341 342 342 342 342 -97 95 c-53 53 -97 100 -97 104 0 5 44 52 97 106 l97 96
-97 96 c-53 53 -97 100 -97 105 0 5 44 52 97 105 l97 95 -340 340 c-186 186
-341 339 -344 339 -3 0 -155 -150 -337 -333z"/>
</g>
</svg>
